<mxfile host="app.diagrams.net" modified="2023-07-26T07:59:42.070Z" agent="Mozilla/5.0 (Macintosh; Intel Mac OS X 10.15; rv:109.0) Gecko/20100101 Firefox/115.0" etag="PFUb-wHzDFpkw32UwGeJ" version="21.6.5">
  <diagram name="Page-1" id="Tn4H3zuSq-0qdtHd99vh">
    <mxGraphModel dx="1193" dy="791" grid="1" gridSize="10" guides="1" tooltips="1" connect="1" arrows="1" fold="1" page="1" pageScale="1" pageWidth="850" pageHeight="1100" math="0" shadow="0">
      <root>
        <mxCell id="0" />
        <mxCell id="1" parent="0" />
        <mxCell id="AqXSU9uybI4dMEmBLLGT-14" value="" style="rounded=0;whiteSpace=wrap;html=1;dashed=1;dashPattern=12 12;fillColor=none;strokeColor=#005293;" vertex="1" parent="1">
          <mxGeometry x="260" y="210" width="500" height="250" as="geometry" />
        </mxCell>
        <mxCell id="AqXSU9uybI4dMEmBLLGT-4" value="" style="edgeStyle=orthogonalEdgeStyle;rounded=0;orthogonalLoop=1;jettySize=auto;html=1;" edge="1" parent="1" source="AqXSU9uybI4dMEmBLLGT-1" target="AqXSU9uybI4dMEmBLLGT-2">
          <mxGeometry relative="1" as="geometry" />
        </mxCell>
        <mxCell id="AqXSU9uybI4dMEmBLLGT-1" value="&lt;font style=&quot;font-size: 24px;&quot;&gt;Preprocess&lt;/font&gt;" style="rounded=1;whiteSpace=wrap;html=1;" vertex="1" parent="1">
          <mxGeometry x="110" y="285" width="130" height="70" as="geometry" />
        </mxCell>
        <mxCell id="AqXSU9uybI4dMEmBLLGT-5" value="" style="edgeStyle=orthogonalEdgeStyle;rounded=0;orthogonalLoop=1;jettySize=auto;html=1;" edge="1" parent="1" source="AqXSU9uybI4dMEmBLLGT-2" target="AqXSU9uybI4dMEmBLLGT-3">
          <mxGeometry relative="1" as="geometry" />
        </mxCell>
        <mxCell id="AqXSU9uybI4dMEmBLLGT-2" value="&lt;font style=&quot;font-size: 24px;&quot;&gt;Any&lt;/font&gt;" style="ellipse;whiteSpace=wrap;html=1;aspect=fixed;" vertex="1" parent="1">
          <mxGeometry x="280" y="285" width="70" height="70" as="geometry" />
        </mxCell>
        <mxCell id="AqXSU9uybI4dMEmBLLGT-9" value="" style="edgeStyle=orthogonalEdgeStyle;rounded=0;orthogonalLoop=1;jettySize=auto;html=1;" edge="1" parent="1" source="AqXSU9uybI4dMEmBLLGT-3" target="AqXSU9uybI4dMEmBLLGT-8">
          <mxGeometry relative="1" as="geometry" />
        </mxCell>
        <mxCell id="AqXSU9uybI4dMEmBLLGT-3" value="&lt;font style=&quot;font-size: 24px;&quot;&gt;Solve&lt;/font&gt;" style="rounded=1;whiteSpace=wrap;html=1;" vertex="1" parent="1">
          <mxGeometry x="420" y="290" width="120" height="60" as="geometry" />
        </mxCell>
        <mxCell id="AqXSU9uybI4dMEmBLLGT-11" value="&lt;div style=&quot;font-size: 24px;&quot;&gt;Yes&lt;/div&gt;" style="edgeStyle=orthogonalEdgeStyle;rounded=0;orthogonalLoop=1;jettySize=auto;html=1;" edge="1" parent="1" source="AqXSU9uybI4dMEmBLLGT-8" target="AqXSU9uybI4dMEmBLLGT-10">
          <mxGeometry relative="1" as="geometry" />
        </mxCell>
        <mxCell id="AqXSU9uybI4dMEmBLLGT-8" value="&lt;font style=&quot;font-size: 24px;&quot;&gt;Terminate?&lt;/font&gt;" style="rhombus;whiteSpace=wrap;html=1;rounded=1;" vertex="1" parent="1">
          <mxGeometry x="580" y="280" width="170" height="80" as="geometry" />
        </mxCell>
        <mxCell id="AqXSU9uybI4dMEmBLLGT-10" value="&lt;font style=&quot;font-size: 24px;&quot;&gt;Postprocess&lt;/font&gt;" style="whiteSpace=wrap;html=1;rounded=1;" vertex="1" parent="1">
          <mxGeometry x="830" y="290" width="150" height="60" as="geometry" />
        </mxCell>
        <mxCell id="AqXSU9uybI4dMEmBLLGT-13" value="&lt;font style=&quot;font-size: 24px;&quot;&gt;No&lt;/font&gt;" style="endArrow=classic;html=1;rounded=0;exitX=0.5;exitY=1;exitDx=0;exitDy=0;entryX=0.5;entryY=1;entryDx=0;entryDy=0;" edge="1" parent="1" source="AqXSU9uybI4dMEmBLLGT-8" target="AqXSU9uybI4dMEmBLLGT-2">
          <mxGeometry width="50" height="50" relative="1" as="geometry">
            <mxPoint x="450" y="440" as="sourcePoint" />
            <mxPoint x="320" y="440" as="targetPoint" />
            <Array as="points">
              <mxPoint x="665" y="440" />
              <mxPoint x="315" y="440" />
            </Array>
          </mxGeometry>
        </mxCell>
        <mxCell id="AqXSU9uybI4dMEmBLLGT-35" value="" style="edgeStyle=orthogonalEdgeStyle;rounded=0;orthogonalLoop=1;jettySize=auto;html=1;" edge="1" parent="1" source="AqXSU9uybI4dMEmBLLGT-17" target="AqXSU9uybI4dMEmBLLGT-30">
          <mxGeometry relative="1" as="geometry" />
        </mxCell>
        <mxCell id="AqXSU9uybI4dMEmBLLGT-17" value="&lt;font style=&quot;font-size: 24px;&quot;&gt;Preprocess&lt;/font&gt;" style="rounded=1;whiteSpace=wrap;html=1;" vertex="1" parent="1">
          <mxGeometry x="110" y="615" width="130" height="70" as="geometry" />
        </mxCell>
        <mxCell id="AqXSU9uybI4dMEmBLLGT-24" value="&lt;font style=&quot;font-size: 24px;&quot;&gt;Postprocess&lt;/font&gt;" style="whiteSpace=wrap;html=1;rounded=1;" vertex="1" parent="1">
          <mxGeometry x="1390" y="620" width="150" height="60" as="geometry" />
        </mxCell>
        <mxCell id="AqXSU9uybI4dMEmBLLGT-28" value="" style="rounded=0;whiteSpace=wrap;html=1;dashed=1;dashPattern=12 12;fillColor=none;strokeColor=#005293;" vertex="1" parent="1">
          <mxGeometry x="400" y="600" width="160" height="100" as="geometry" />
        </mxCell>
        <mxCell id="AqXSU9uybI4dMEmBLLGT-29" value="" style="edgeStyle=orthogonalEdgeStyle;rounded=0;orthogonalLoop=1;jettySize=auto;html=1;" edge="1" parent="1" source="AqXSU9uybI4dMEmBLLGT-30" target="AqXSU9uybI4dMEmBLLGT-32">
          <mxGeometry relative="1" as="geometry" />
        </mxCell>
        <mxCell id="AqXSU9uybI4dMEmBLLGT-30" value="&lt;font style=&quot;font-size: 24px;&quot;&gt;Any&lt;/font&gt;" style="ellipse;whiteSpace=wrap;html=1;aspect=fixed;" vertex="1" parent="1">
          <mxGeometry x="280" y="615" width="70" height="70" as="geometry" />
        </mxCell>
        <mxCell id="AqXSU9uybI4dMEmBLLGT-45" value="" style="edgeStyle=orthogonalEdgeStyle;rounded=0;orthogonalLoop=1;jettySize=auto;html=1;" edge="1" parent="1" source="AqXSU9uybI4dMEmBLLGT-32" target="AqXSU9uybI4dMEmBLLGT-39">
          <mxGeometry relative="1" as="geometry" />
        </mxCell>
        <mxCell id="AqXSU9uybI4dMEmBLLGT-32" value="&lt;font style=&quot;font-size: 24px;&quot;&gt;Solve&lt;br&gt;fluid&lt;br&gt;&lt;/font&gt;" style="rounded=1;whiteSpace=wrap;html=1;" vertex="1" parent="1">
          <mxGeometry x="420" y="620" width="120" height="60" as="geometry" />
        </mxCell>
        <mxCell id="AqXSU9uybI4dMEmBLLGT-47" value="" style="edgeStyle=orthogonalEdgeStyle;rounded=0;orthogonalLoop=1;jettySize=auto;html=1;" edge="1" parent="1" source="AqXSU9uybI4dMEmBLLGT-38" target="AqXSU9uybI4dMEmBLLGT-40">
          <mxGeometry relative="1" as="geometry" />
        </mxCell>
        <mxCell id="AqXSU9uybI4dMEmBLLGT-38" value="&lt;font style=&quot;font-size: 24px;&quot;&gt;Solve&lt;br&gt;solid&lt;br&gt;&lt;/font&gt;" style="rounded=1;whiteSpace=wrap;html=1;" vertex="1" parent="1">
          <mxGeometry x="770" y="620" width="120" height="60" as="geometry" />
        </mxCell>
        <mxCell id="AqXSU9uybI4dMEmBLLGT-46" value="" style="edgeStyle=orthogonalEdgeStyle;rounded=0;orthogonalLoop=1;jettySize=auto;html=1;" edge="1" parent="1" source="AqXSU9uybI4dMEmBLLGT-39" target="AqXSU9uybI4dMEmBLLGT-38">
          <mxGeometry relative="1" as="geometry" />
        </mxCell>
        <mxCell id="AqXSU9uybI4dMEmBLLGT-39" value="&lt;font style=&quot;font-size: 24px;&quot;&gt;Transfer&lt;br&gt;fluid =&amp;gt; solid&lt;br&gt;&lt;/font&gt;" style="rounded=1;whiteSpace=wrap;html=1;" vertex="1" parent="1">
          <mxGeometry x="580" y="620" width="160" height="60" as="geometry" />
        </mxCell>
        <mxCell id="AqXSU9uybI4dMEmBLLGT-48" value="" style="edgeStyle=orthogonalEdgeStyle;rounded=0;orthogonalLoop=1;jettySize=auto;html=1;" edge="1" parent="1" source="AqXSU9uybI4dMEmBLLGT-40" target="AqXSU9uybI4dMEmBLLGT-41">
          <mxGeometry relative="1" as="geometry" />
        </mxCell>
        <mxCell id="AqXSU9uybI4dMEmBLLGT-40" value="&lt;font style=&quot;font-size: 24px;&quot;&gt;Transfer&lt;br&gt;solid =&amp;gt; fluid&lt;/font&gt;" style="rounded=1;whiteSpace=wrap;html=1;" vertex="1" parent="1">
          <mxGeometry x="920" y="620" width="160" height="60" as="geometry" />
        </mxCell>
        <mxCell id="AqXSU9uybI4dMEmBLLGT-42" value="" style="edgeStyle=orthogonalEdgeStyle;rounded=0;orthogonalLoop=1;jettySize=auto;html=1;" edge="1" parent="1" source="AqXSU9uybI4dMEmBLLGT-41" target="AqXSU9uybI4dMEmBLLGT-24">
          <mxGeometry relative="1" as="geometry" />
        </mxCell>
        <mxCell id="AqXSU9uybI4dMEmBLLGT-43" value="&lt;font style=&quot;font-size: 24px;&quot;&gt;Yes&lt;/font&gt;" style="edgeLabel;html=1;align=center;verticalAlign=middle;resizable=0;points=[];" vertex="1" connectable="0" parent="AqXSU9uybI4dMEmBLLGT-42">
          <mxGeometry x="-0.142" relative="1" as="geometry">
            <mxPoint as="offset" />
          </mxGeometry>
        </mxCell>
        <mxCell id="AqXSU9uybI4dMEmBLLGT-44" style="edgeStyle=orthogonalEdgeStyle;rounded=0;orthogonalLoop=1;jettySize=auto;html=1;" edge="1" parent="1" source="AqXSU9uybI4dMEmBLLGT-41" target="AqXSU9uybI4dMEmBLLGT-30">
          <mxGeometry relative="1" as="geometry">
            <mxPoint x="550" y="770" as="targetPoint" />
            <Array as="points">
              <mxPoint x="1195" y="770" />
              <mxPoint x="315" y="770" />
            </Array>
          </mxGeometry>
        </mxCell>
        <mxCell id="AqXSU9uybI4dMEmBLLGT-52" value="&lt;font style=&quot;font-size: 24px;&quot;&gt;No&lt;/font&gt;" style="edgeLabel;html=1;align=center;verticalAlign=middle;resizable=0;points=[];" vertex="1" connectable="0" parent="AqXSU9uybI4dMEmBLLGT-44">
          <mxGeometry x="0.063" y="1" relative="1" as="geometry">
            <mxPoint as="offset" />
          </mxGeometry>
        </mxCell>
        <mxCell id="AqXSU9uybI4dMEmBLLGT-41" value="&lt;font style=&quot;font-size: 24px;&quot;&gt;Terminate?&lt;/font&gt;" style="rhombus;whiteSpace=wrap;html=1;rounded=1;" vertex="1" parent="1">
          <mxGeometry x="1110" y="610" width="170" height="80" as="geometry" />
        </mxCell>
        <mxCell id="AqXSU9uybI4dMEmBLLGT-49" value="" style="rounded=0;whiteSpace=wrap;html=1;dashed=1;dashPattern=12 12;fillColor=none;strokeColor=#e07222;" vertex="1" parent="1">
          <mxGeometry x="760" y="600" width="140" height="100" as="geometry" />
        </mxCell>
        <mxCell id="AqXSU9uybI4dMEmBLLGT-50" value="" style="rounded=0;whiteSpace=wrap;html=1;dashed=1;dashPattern=12 12;fillColor=none;strokeColor=#a1ad00;" vertex="1" parent="1">
          <mxGeometry x="570" y="600" width="180" height="100" as="geometry" />
        </mxCell>
        <mxCell id="AqXSU9uybI4dMEmBLLGT-51" value="" style="rounded=0;whiteSpace=wrap;html=1;dashed=1;dashPattern=12 12;fillColor=none;strokeColor=#a1ad00;" vertex="1" parent="1">
          <mxGeometry x="910" y="600" width="180" height="100" as="geometry" />
        </mxCell>
      </root>
    </mxGraphModel>
  </diagram>
</mxfile>
